<svg xmlns="http://www.w3.org/2000/svg" viewBox="0 0 1080 1080"><defs><linearGradient id="bg" x1="0" y1="0" x2="1" y2="1"><stop stop-color="#071525"/><stop offset="1" stop-color="#193b54"/></linearGradient><linearGradient id="gold" x1="0" y1="0" x2="1" y2="0"><stop stop-color="#c78d26"/><stop offset=".5" stop-color="#ffe08a"/><stop offset="1" stop-color="#c78d26"/></linearGradient><linearGradient id="cyan" x1="0" y1="0" x2="1" y2="1"><stop stop-color="#5ce4d8"/><stop offset="1" stop-color="#6aaeff"/></linearGradient></defs><rect width="1080" height="1080" fill="url(#bg)"/><g opacity=".24" fill="none" stroke="#62dcd4" stroke-width="3"><rect x="675" y="155" width="255" height="420" rx="28"/><rect x="720" y="210" width="165" height="54" rx="12"/><rect x="720" y="300" width="165" height="54" rx="12"/><rect x="720" y="390" width="165" height="54" rx="12"/><rect x="720" y="480" width="95" height="40" rx="10"/></g><path d="M735 705h210v210H735z" fill="#07111d" stroke="url(#cyan)" stroke-width="4"/><path d="M780 810l44 45 82-96" fill="none" stroke="#5ce4d8" stroke-width="18" stroke-linecap="round" stroke-linejoin="round"/><text x="70" y="105" font-family="Arial,sans-serif" font-size="29" font-weight="700" letter-spacing="5" fill="#c6d3de">DV LABS / CLIENT DELIVERY</text><text x="70" y="310" font-family="Arial,sans-serif" font-size="95" font-weight="900" fill="#fff">PROJECT</text><text x="70" y="405" font-family="Arial,sans-serif" font-size="95" font-weight="900" fill="url(#cyan)">UPGRADE</text><text x="73" y="478" font-family="Arial,sans-serif" font-size="31" font-weight="600" fill="#afc2d1">Approved scope · implementation · launch QA</text><rect x="70" y="565" width="570" height="185" rx="32" fill="#07121e" stroke="#60ded5" stroke-width="3"/><text x="110" y="638" font-family="Arial,sans-serif" font-size="33" font-weight="900" fill="#fff">EVOLVE THE SYSTEM</text><text x="110" y="692" font-family="Arial,sans-serif" font-size="27" font-weight="700" fill="#79dcd5">BUILD · INTEGRATE · VERIFY</text><text x="110" y="730" font-family="Arial,sans-serif" font-size="22" fill="#b9c9d4">DV Launch + Evolution delivery layer</text><rect x="70" y="825" width="520" height="86" rx="24" fill="url(#gold)"/><text x="110" y="881" font-family="Arial,sans-serif" font-size="34" font-weight="900" fill="#081524">APPROVED CLIENT SCOPE</text><text x="70" y="985" font-family="Arial,sans-serif" font-size="24" letter-spacing="3" fill="#9db2c5">DANKSTRONAMUZ VENTURES / DV LABS</text><rect x="900" y="900" width="120" height="120" rx="28" fill="#06101b" stroke="#60ded5" stroke-width="2"/><text x="931" y="979" font-family="Arial,sans-serif" font-size="48" font-weight="900" fill="#e7b84c">DV</text></svg>