<svg xmlns="http://www.w3.org/2000/svg" viewBox="0 0 1080 1080"><defs><linearGradient id="g" x1="0" y1="0" x2="1" y2="1"><stop stop-color="#07192c"/><stop offset="1" stop-color="#153955"/></linearGradient><linearGradient id="gold" x1="0" y1="0" x2="1" y2="0"><stop stop-color="#ce9625"/><stop offset=".5" stop-color="#ffdc72"/><stop offset="1" stop-color="#ce9625"/></linearGradient></defs><rect width="1080" height="1080" fill="url(#g)"/><g fill="none" stroke="#f2b63d" opacity=".48"><circle cx="800" cy="400" r="360"/><circle cx="800" cy="400" r="285"/><circle cx="800" cy="400" r="210"/></g><g fill="#64dcd3"><circle cx="910" cy="240" r="9"/><circle cx="965" cy="510" r="8"/><circle cx="860" cy="760" r="8"/></g><path d="M0 1080V830L250 1080Z" fill="#f2b63d"/><text x="72" y="105" font-family="Arial,sans-serif" font-size="29" font-weight="700" letter-spacing="4" fill="#cbd5df">DV LABS / GROWTH OFFER</text><text x="72" y="300" font-family="Arial,sans-serif" font-size="86" font-weight="800" fill="#fff">GROWTH</text><text x="72" y="390" font-family="Arial,sans-serif" font-size="86" font-weight="800" fill="#fff">OPERATIONS</text><text x="75" y="475" font-family="Arial,sans-serif" font-size="34" font-weight="600" fill="#a9bfd1">Research · outreach · follow-up · learning</text><rect x="72" y="555" width="850" height="245" rx="36" fill="url(#gold)"/><text x="125" y="675" font-family="Arial,sans-serif" font-size="77" font-weight="800" fill="#082039">GROWTH READY</text><text x="125" y="750" font-family="Arial,sans-serif" font-size="31" font-weight="700" fill="#082039">Qualified conversations · controlled execution</text><text x="72" y="900" font-family="Arial,sans-serif" font-size="33" font-weight="700" fill="#fff">Managed acquisition without building an SDR team</text><text x="72" y="962" font-family="Arial,sans-serif" font-size="25" fill="#a9bfd1">DV GROWTH OPERATIONS</text><rect x="900" y="900" width="120" height="120" rx="28" fill="#06182a" stroke="#64dcd3"/><text x="931" y="979" font-family="Arial,sans-serif" font-size="48" font-weight="800" fill="#f2b63d">DV</text></svg>